<svg width="25" height="25" fill="none" xmlns="http://www.w3.org/2000/svg"><path opacity=".5" d="M14.584 7.292a1.041 1.041 0 102.083 0V6.25a4.166 4.166 0 00-4.165-4.166H6.255A4.166 4.166 0 002.091 6.25v12.5a4.166 4.166 0 004.164 4.167h6.254c2.3 0 4.165-1.866 4.165-4.167v-1.04a1.041 1.041 0 10-2.083 0v1.041c0 1.15-.932 2.084-2.082 2.084H6.255a2.083 2.083 0 01-2.082-2.084V6.25c0-1.15.932-2.083 2.082-2.083h6.247c1.15 0 2.082.933 2.082 2.083v1.042z" fill="#90CEDE"/><rect opacity=".5" x="20.834" y="11.458" width="2.083" height="12.5" rx="1" transform="rotate(90 20.834 11.458)" fill="#90CEDE"/><path d="M18.014 10.112a1.042 1.042 0 011.473-1.473l3.125 3.125a1.042 1.042 0 010 1.473l-3.125 3.125a1.042 1.042 0 11-1.473-1.473l2.389-2.389-2.389-2.388z" fill="#90CEDE"/></svg>