<svg width="25" height="25" fill="none" xmlns="http://www.w3.org/2000/svg"><path fill-rule="evenodd" clip-rule="evenodd" d="M7.685 7.925a.896.896 0 01.043 1.324l-3.355 3.34 3.355 3.34c.379.377.36.97-.043 1.325a1.048 1.048 0 01-1.413-.04l-4-3.983a.895.895 0 010-1.284l4-3.982a1.048 1.048 0 011.413-.04zm9.63 0a.896.896 0 00-.043 1.324l3.355 3.34-3.355 3.34a.896.896 0 00.043 1.325 1.048 1.048 0 001.413-.04l4-3.983a.895.895 0 000-1.284l-4-3.982a1.048 1.048 0 00-1.413-.04z" fill="#90CEDE"/><rect width="1.907" height="15.043" rx=".954" transform="matrix(.96696 .2549 -.26278 .96486 13.555 5)" fill="#90CEDE"/></svg>