<svg width="25" height="25" fill="none" xmlns="http://www.w3.org/2000/svg"><path opacity=".5" fill-rule="evenodd" clip-rule="evenodd" d="M6.209 8.334a1 1 0 00-1 1v6.333a1 1 0 001 1h.083a1 1 0 001-1v-2.125h8.334a4.167 4.167 0 004.166-4.166V8.334H17.71v1.042c0 1.15-.933 2.083-2.083 2.083H7.292V9.334a1 1 0 00-1-1H6.21z" fill="#90CEDE"/><path fill-rule="evenodd" clip-rule="evenodd" d="M2.084 19.792a4.167 4.167 0 108.333 0 4.167 4.167 0 00-8.333 0zm6.25 0a2.083 2.083 0 11-4.167 0 2.083 2.083 0 014.167 0zm6.25-14.584a4.167 4.167 0 108.333 0 4.167 4.167 0 00-8.333 0zm6.25 0a2.083 2.083 0 11-4.167 0 2.083 2.083 0 014.167 0zm-18.75 0a4.167 4.167 0 108.333 0 4.167 4.167 0 00-8.333 0zm6.25 0a2.083 2.083 0 11-4.167 0 2.083 2.083 0 014.167 0z" fill="#90CEDE"/></svg>