<svg width="20" height="20" fill="none" xmlns="http://www.w3.org/2000/svg"><path d="M17.574 4.014a1.58 1.58 0 01.021 2.144l-6.78 7.367a1.44 1.44 0 01-1.027.47l-2.85.063.06-2.99c.008-.396.163-.774.432-1.054l6.932-7.192a1.425 1.425 0 012.073.003l1.14 1.19z" fill="#314F57"/><path opacity=".4" d="M10.75 1.666a.833.833 0 110 1.667H5c-.921 0-1.667.746-1.667 1.666v10c0 .92.746 1.667 1.666 1.667h10c.92 0 1.667-.746 1.667-1.667v-4.166a.833.833 0 111.667 0v4.166a3.333 3.333 0 01-3.334 3.334H5a3.333 3.333 0 01-3.333-3.334V5A3.333 3.333 0 015 1.667h5.75z" fill="#314F57"/></svg>